HIERARCHY
ROOT hip
{
  OFFSET 0 0 0
  CHANNELS 6 Xposition Yposition Zposition Zrotation Yrotation Xrotation
  JOINT abdomen
  {
    OFFSET 0 20.6881 -0.73152
    CHANNELS 3 Zrotation Xrotation Yrotation
    JOINT chest
    {
      OFFSET 0 11.7043 -0.48768
      CHANNELS 3 Zrotation Xrotation Yrotation
      JOINT neck
      {
        OFFSET 0 22.1894 -2.19456
        CHANNELS 3 Zrotation Xrotation Yrotation
        JOINT head
        {
          OFFSET -0.24384 7.07133 1.2192
          CHANNELS 3 Zrotation Xrotation Yrotation
          JOINT leftEye
          {
            OFFSET 4.14528 8.04674 8.04672
            CHANNELS 3 Zrotation Xrotation Yrotation
            End Site
            {
              OFFSET 1 0 0
            }
          }
          JOINT rightEye
          {
            OFFSET -3.6576 8.04674 8.04672
            CHANNELS 3 Zrotation Xrotation Yrotation
            End Site
            {
              OFFSET 1 0 0
            }
          }
        }
      }
      JOINT rCollar
      {
        OFFSET -2.68224 19.2634 -4.8768
        CHANNELS 3 Zrotation Xrotation Yrotation
        JOINT rShldr
        {
          OFFSET -8.77824 -1.95073 1.46304
          CHANNELS 3 Zrotation Xrotation Yrotation
          JOINT rForeArm
          {
            OFFSET -28.1742 -1.7115 0.48768
            CHANNELS 3 Zrotation Xrotation Yrotation
            JOINT rHand
            {
              OFFSET -22.5879 0.773209 7.07136
              CHANNELS 3 Zrotation Xrotation Yrotation
              JOINT rThumb1
              {
                OFFSET -1.2192 -0.487915 3.41376
                CHANNELS 3 Zrotation Xrotation Yrotation
                JOINT rThumb2
                {
                  OFFSET -3.37035 -0.52449 3.41376
                  CHANNELS 3 Zrotation Xrotation Yrotation
                  End Site
                  {
                    OFFSET -1.78271 -1.18214 1.43049
                  }
                }
              }
              JOINT rIndex1
              {
                OFFSET -7.75947 0.938293 5.60832
                CHANNELS 3 Zrotation Xrotation Yrotation
                JOINT rIndex2
                {
                  OFFSET -2.54057 -0.884171 1.56538
                  CHANNELS 3 Zrotation Xrotation Yrotation
                  End Site
                  {
                    OFFSET -1.62519 -0.234802 1.16502
                  }
                }
              }
              JOINT rMid1
              {
                OFFSET -8.24714 1.18213 3.41376
                CHANNELS 3 Zrotation Xrotation Yrotation
                JOINT rMid2
                {
                  OFFSET -3.10165 -0.590103 1.0647
                  CHANNELS 3 Zrotation Xrotation Yrotation
                  End Site
                  {
                    OFFSET -2.48547 -0.328903 0.83742
                  }
                }
              }
              JOINT rRing1
              {
                OFFSET -8.82822 0.546677 1.51678
                CHANNELS 3 Zrotation Xrotation Yrotation
                JOINT rRing2
                {
                  OFFSET -2.60934 -0.819778 -0.0198488
                  CHANNELS 3 Zrotation Xrotation Yrotation
                  End Site
                  {
                    OFFSET -2.33842 -0.294052 0.168128
                  }
                }
              }
              JOINT rPinky1
              {
                OFFSET -8.27202 -0.0477905 -0.4584
                CHANNELS 3 Zrotation Xrotation Yrotation
                JOINT rPinky2
                {
                  OFFSET -1.82734 -0.647385 -0.700984
                  CHANNELS 3 Zrotation Xrotation Yrotation
                  End Site
                  {
                    OFFSET -1.69225 -0.51767 -0.607171
                  }
                }
              }
            }
          }
        }
      }
      JOINT lCollar
      {
        OFFSET 2.68224 19.2634 -4.8768
        CHANNELS 3 Zrotation Xrotation Yrotation
        JOINT lShldr
        {
          OFFSET 8.77824 -1.95073 1.46304
          CHANNELS 3 Zrotation Xrotation Yrotation
          JOINT lForeArm
          {
            OFFSET 28.1742 -1.7115 0.48768
            CHANNELS 3 Zrotation Xrotation Yrotation
            JOINT lHand
            {
              OFFSET 22.5879 0.773209 7.07136
              CHANNELS 3 Zrotation Xrotation Yrotation
              JOINT lThumb1
              {
                OFFSET 1.2192 -0.487915 3.41376
                CHANNELS 3 Zrotation Xrotation Yrotation
                JOINT lThumb2
                {
                  OFFSET 3.37035 -0.52449 3.41376
                  CHANNELS 3 Zrotation Xrotation Yrotation
                  End Site
                  {
                    OFFSET 1.78271 -1.18214 1.43049
                  }
                }
              }
              JOINT lIndex1
              {
                OFFSET 7.75947 0.938293 5.60832
                CHANNELS 3 Zrotation Xrotation Yrotation
                JOINT lIndex2
                {
                  OFFSET 2.54057 -0.884171 1.56538
                  CHANNELS 3 Zrotation Xrotation Yrotation
                  End Site
                  {
                    OFFSET 1.62519 -0.234802 1.16502
                  }
                }
              }
              JOINT lMid1
              {
                OFFSET 8.24714 1.18213 3.41376
                CHANNELS 3 Zrotation Xrotation Yrotation
                JOINT lMid2
                {
                  OFFSET 3.10165 -0.590103 1.0647
                  CHANNELS 3 Zrotation Xrotation Yrotation
                  End Site
                  {
                    OFFSET 2.48547 -0.328903 0.83742
                  }
                }
              }
              JOINT lRing1
              {
                OFFSET 8.82822 0.546677 1.51678
                CHANNELS 3 Zrotation Xrotation Yrotation
                JOINT lRing2
                {
                  OFFSET 2.60934 -0.819778 -0.0198488
                  CHANNELS 3 Zrotation Xrotation Yrotation
                  End Site
                  {
                    OFFSET 2.33842 -0.294052 0.168128
                  }
                }
              }
              JOINT lPinky1
              {
                OFFSET 8.27202 -0.0477905 -0.4584
                CHANNELS 3 Zrotation Xrotation Yrotation
                JOINT lPinky2
                {
                  OFFSET 1.82734 -0.647385 -0.700984
                  CHANNELS 3 Zrotation Xrotation Yrotation
                  End Site
                  {
                    OFFSET 1.69225 -0.51767 -0.607171
                  }
                }
              }
            }
          }
        }
      }
    }
  }
  JOINT rButtock
  {
    OFFSET -8.77824 4.35084 1.2192
    CHANNELS 3 Zrotation Xrotation Yrotation
    JOINT rThigh
    {
      OFFSET 0 -1.70687 -2.19456
      CHANNELS 3 Zrotation Xrotation Yrotation
      JOINT rShin
      {
        OFFSET 0 -36.8199 0.73152
        CHANNELS 3 Zrotation Xrotation Yrotation
        JOINT rFoot
        {
          OFFSET 0.73152 -45.1104 -5.12064
          CHANNELS 3 Zrotation Xrotation Yrotation
          End Site
          {
            OFFSET -1.1221 -3.69964 12.103
          }
        }
      }
    }
  }
  JOINT lButtock
  {
    OFFSET 8.77824 4.35084 1.2192
    CHANNELS 3 Zrotation Xrotation Yrotation
    JOINT lThigh
    {
      OFFSET 0 -1.70687 -2.19456
      CHANNELS 3 Zrotation Xrotation Yrotation
      JOINT lShin
      {
        OFFSET 0 -36.8199 0.73152
        CHANNELS 3 Zrotation Xrotation Yrotation
        JOINT lFoot
        {
          OFFSET -0.73152 -45.1104 -5.12064
          CHANNELS 3 Zrotation Xrotation Yrotation
          End Site
          {
            OFFSET 1.1221 -3.69964 12.103
          }
        }
      }
    }
  }
}
MOTION
Frames:	7
Frame Time:	0.00833333
52.2494 82.6397 -11.3823 -181.828 67.4665 -184.515 7.46727 6.47886 -20.6008 3.79165 -0.727127 -5.73391 9.86222 18.3026 -17.6817 -1.80373 8.5854 -29.6554 -0.0 0.0 0.0 -0.0 0.0 0.0 -3.36756e-14 4.90714e-12 -4.75498e-13 74.5496 -5.22531 -17.1532 -6.90586 -2.46353 12.1131 -0.190197 12.3054 1.75697 1.66789e-09 4.12441e-09 -9.56408e-11 2.87918e-09 7.14896e-09 -1.84174e-10 1.6679e-09 4.12441e-09 -9.56432e-11 7.73091 5.47488 0.417314 1.66789e-09 4.12441e-09 -9.56351e-11 2.90554 0.965183 0.102902 1.6679e-09 4.12441e-09 -9.56424e-11 10.2786 0.731801 0.0259123 1.66788e-09 4.12442e-09 -9.5642e-11 2.22167 -0.733487 -0.20892 -3.37505e-14 4.90711e-12 -4.75921e-13 -66.5579 27.3998 -5.54294 13.0637 -6.22267 -23.6893 0.1758 -11.8516 1.69012 2.98235e-09 -3.32678e-09 -1.74236e-09 5.16836e-09 -5.73902e-09 -2.98796e-09 2.98234e-09 -3.32678e-09 -1.74235e-09 -7.73091 5.47488 -0.417314 2.98235e-09 -3.32678e-09 -1.74236e-09 -2.90554 0.965183 -0.102902 2.98235e-09 -3.32678e-09 -1.74236e-09 -10.2786 0.731801 -0.0259123 2.98235e-09 -3.32678e-09 -1.74237e-09 -2.22167 -0.733487 0.20892 -2.03217e-16 0.0 -3.88251e-19 4.13779 -6.4019 16.9221 -0.500456 46.1239 0.78723 0.0076872 4.11186 15.3861 2.03217e-16 0.0 3.88251e-19 1.24972 -22.097 -2.48956 0.0792623 15.678 0.286131 -1.17886 8.12096 17.308
51.6768 82.5738 -10.8055 -180.408 67.7042 -183.018 7.98705 6.58031 -20.4558 3.56851 -0.827299 -5.668 10.0501 18.2547 -17.6999 -1.77722 8.49898 -29.7027 -0.0 0.0 0.0 -0.0 0.0 0.0 -2.3807e-14 4.53191e-12 -4.35488e-13 74.3567 -5.28148 -17.0467 -7.03094 -2.52337 12.3396 -0.195892 12.5105 1.78702 1.43594e-09 3.87305e-09 7.092e-11 2.47947e-09 6.71345e-09 1.06016e-10 1.43594e-09 3.87305e-09 7.09168e-11 7.73091 5.47488 0.417314 1.43594e-09 3.87305e-09 7.09295e-11 2.90554 0.965183 0.102902 1.43595e-09 3.87305e-09 7.09184e-11 10.2786 0.731801 0.0259123 1.43593e-09 3.87306e-09 7.092e-11 2.22167 -0.733487 -0.20892 -2.39027e-14 4.53188e-12 -4.35935e-13 -66.3622 27.5723 -5.61129 12.9641 -6.14811 -23.4921 0.168241 -11.6105 1.65469 2.64311e-09 -3.0861e-09 -1.71987e-09 4.58113e-09 -5.32553e-09 -2.95255e-09 2.64311e-09 -3.0861e-09 -1.71986e-09 -7.73091 5.47488 -0.417314 2.64311e-09 -3.0861e-09 -1.71987e-09 -2.90554 0.965183 -0.102902 2.64311e-09 -3.0861e-09 -1.71987e-09 -10.2786 0.731801 -0.0259123 2.64311e-09 -3.0861e-09 -1.71987e-09 -2.22167 -0.733487 0.20892 -2.03217e-16 0.0 -3.88251e-19 4.70034 -5.61298 17.1991 -0.471258 44.82 0.722584 0.660044 1.25058 14.0317 2.03217e-16 0.0 3.88251e-19 1.93649 -22.3716 -2.39977 0.080095 15.2174 0.295233 -1.41246 8.90416 17.3026
51.0975 82.5062 -10.3149 -180.264 68.1373 -182.905 8.67294 6.91888 -20.446 3.48626 -1.01433 -5.62175 10.015 18.1693 -17.6766 -1.7439 8.40364 -29.7095 -0.0 0.0 0.0 -0.0 0.0 0.0 -2.20445e-14 4.84247e-12 -4.67425e-13 74.4764 -5.42456 -16.6538 -7.10554 -2.5592 12.4751 -0.211995 13.0376 1.86467 1.31455e-09 4.02097e-09 -1.72903e-10 2.26556e-09 6.96849e-09 -3.1521e-10 1.31456e-09 4.02097e-09 -1.72907e-10 7.73091 5.47488 0.417314 1.31455e-09 4.02097e-09 -1.72894e-10 2.90554 0.965183 0.102902 1.31456e-09 4.02097e-09 -1.72904e-10 10.2786 0.731801 0.0259123 1.31454e-09 4.02098e-09 -1.729e-10 2.22167 -0.733487 -0.20892 -2.21568e-14 4.84244e-12 -4.67849e-13 -66.3543 27.5399 -5.67771 12.8439 -6.05818 -23.2556 0.156644 -11.2229 1.59789 2.76874e-09 -3.1939e-09 -1.71037e-09 4.79824e-09 -5.51202e-09 -2.93608e-09 2.76873e-09 -3.1939e-09 -1.71036e-09 -7.73091 5.47488 -0.417314 2.76874e-09 -3.1939e-09 -1.71037e-09 -2.90554 0.965183 -0.102902 2.76873e-09 -3.1939e-09 -1.71037e-09 -10.2786 0.731801 -0.0259123 2.76874e-09 -3.1939e-09 -1.71037e-09 -2.22167 -0.733487 0.20892 -2.03217e-16 0.0 -3.88251e-19 5.34849 -4.94786 17.0504 -0.442251 43.5191 0.670246 1.02947 -1.02113 12.5337 2.03217e-16 0.0 3.88251e-19 2.7877 -22.5168 -2.35037 0.0811113 14.6586 0.305806 -1.61438 9.53074 17.3932
50.5218 82.4802 -9.81094 -179.653 68.5836 -182.526 9.48082 7.42786 -20.5209 3.47168 -1.2627 -5.58632 9.85104 18.0608 -17.6275 -1.69566 8.29706 -29.6911 -0.0 0.0 0.0 -0.0 0.0 0.0 -2.22964e-14 5.45928e-12 -5.33327e-13 74.7981 -5.62416 -16.0796 -7.15707 -2.58405 12.5687 -0.236841 13.771 1.97356 1.19645e-09 4.35126e-09 -6.63111e-10 2.05407e-09 7.53857e-09 -1.16295e-09 1.19645e-09 4.35126e-09 -6.63116e-10 7.73091 5.47488 0.417314 1.19645e-09 4.35126e-09 -6.63104e-10 2.90554 0.965183 0.102902 1.19646e-09 4.35126e-09 -6.63111e-10 10.2786 0.731801 0.0259123 1.19644e-09 4.35126e-09 -6.63103e-10 2.22167 -0.733487 -0.20892 -2.24253e-14 5.45926e-12 -5.33696e-13 -66.4338 27.3817 -5.75878 12.7072 -5.95609 -22.9886 0.143192 -10.741 1.52758 3.09756e-09 -3.45062e-09 -1.68864e-09 5.36695e-09 -5.95505e-09 -2.8971e-09 3.09756e-09 -3.45062e-09 -1.68863e-09 -7.73091 5.47488 -0.417314 3.09757e-09 -3.45062e-09 -1.68863e-09 -2.90554 0.965183 -0.102902 3.09756e-09 -3.45062e-09 -1.68863e-09 -10.2786 0.731801 -0.0259123 3.09757e-09 -3.45061e-09 -1.68864e-09 -2.22167 -0.733487 0.20892 -2.03217e-16 0.0 -3.88251e-19 6.08453 -4.39118 16.6275 -0.413799 42.2518 0.626385 1.19429 -2.97432 10.8579 2.03217e-16 0.0 3.88251e-19 3.76693 -22.5708 -2.32604 0.0824567 14.0085 0.318183 -1.81082 10.0891 17.543
49.9173 82.4508 -9.14678 -177.518 68.6368 -180.658 10.2034 7.97207 -20.5246 3.45115 -1.48581 -5.53367 9.66999 17.9779 -17.5844 -1.63653 8.17104 -29.6777 -0.0 0.0 0.0 -0.0 0.0 0.0 -2.44912e-14 6.09424e-12 -6.00552e-13 75.1601 -5.84938 -15.44 -7.21503 -2.61262 12.6735 -0.266343 14.5599 2.09171 1.05457e-09 4.66641e-09 -1.06965e-09 1.8028e-09 8.08229e-09 -1.86564e-09 1.05458e-09 4.66642e-09 -1.06965e-09 7.73091 5.47488 0.417314 1.05457e-09 4.66641e-09 -1.06964e-09 2.90554 0.965183 0.102902 1.05458e-09 4.66641e-09 -1.06965e-09 10.2786 0.731801 0.0259123 1.05457e-09 4.66642e-09 -1.06963e-09 2.22167 -0.733487 -0.20892 -2.46304e-14 6.09423e-12 -6.00856e-13 -66.5346 27.1588 -5.87448 12.5455 -5.83731 -22.6726 0.129719 -10.2233 1.45234 3.39715e-09 -3.72621e-09 -1.72883e-09 5.88516e-09 -6.43076e-09 -2.96528e-09 3.39715e-09 -3.72621e-09 -1.72883e-09 -7.73091 5.47488 -0.417314 3.39715e-09 -3.72621e-09 -1.72882e-09 -2.90554 0.965183 -0.102902 3.39714e-09 -3.72621e-09 -1.72883e-09 -10.2786 0.731801 -0.0259123 3.39715e-09 -3.7262e-09 -1.72883e-09 -2.22167 -0.733487 0.20892 -2.03217e-16 0.0 -3.88251e-19 6.72648 -3.92673 16.1903 -0.387996 41.0624 0.587762 1.21062 -4.67643 9.19452 2.03217e-16 0.0 3.88251e-19 4.76083 -22.4477 -2.19224 0.082513 13.1614 0.333005 -2.01263 10.5701 17.7496
49.2663 82.4348 -8.44322 -175.947 68.5765 -179.228 10.6279 8.4183 -20.2992 3.35109 -1.59706 -5.43565 9.58339 17.9691 -17.5793 -1.57084 8.01752 -29.6999 -0.0 0.0 0.0 -0.0 0.0 0.0 -2.85574e-14 6.45921e-12 -6.36459e-13 75.3983 -6.069 -14.8508 -7.30865 -2.6595 12.8423 -0.29413 15.2532 2.19636 8.61873e-10 4.76894e-09 -1.06245e-09 1.46955e-09 8.25828e-09 -1.85169e-09 8.61879e-10 4.76895e-09 -1.06246e-09 7.73091 5.47488 0.417314 8.61875e-10 4.76894e-09 -1.06245e-09 2.90554 0.965183 0.102902 8.61882e-10 4.76894e-09 -1.06245e-09 10.2786 0.731801 0.0259123 8.6187e-10 4.76895e-09 -1.06244e-09 2.22167 -0.733487 -0.20892 -2.86945e-14 6.45921e-12 -6.36707e-13 -66.5908 26.9324 -6.04474 12.35 -5.69707 -22.2892 0.11749 -9.72795 1.3806 3.43504e-09 -3.89063e-09 -1.90512e-09 5.9508e-09 -6.71529e-09 -3.27029e-09 3.43504e-09 -3.89062e-09 -1.90511e-09 -7.73091 5.47488 -0.417314 3.43504e-09 -3.89062e-09 -1.90511e-09 -2.90554 0.965183 -0.102902 3.43503e-09 -3.89062e-09 -1.90511e-09 -10.2786 0.731801 -0.0259123 3.43505e-09 -3.89062e-09 -1.90512e-09 -2.22167 -0.733487 0.20892 -2.03217e-16 0.0 -3.88251e-19 7.08306 -3.54159 15.9985 -0.367176 39.9953 0.55129 1.15134 -6.19419 7.74003 2.03217e-16 0.0 3.88251e-19 5.65255 -22.0606 -1.81584 0.079853 12.0113 0.350917 -2.22998 10.9646 18.0106
48.8174 82.6751 -9.19279 -187.263 70.0302 -190.996 10.6457 8.74733 -19.6862 3.09081 -1.5441 -5.25593 9.64027 18.0689 -17.6425 -1.47399 7.78355 -29.8024 -0.0 0.0 0.0 -0.0 0.0 0.0 -3.67262e-14 6.48756e-12 -6.3075e-13 75.4631 -6.31016 -14.3323 -7.45879 -2.73524 13.1137 -0.316017 15.7749 2.2756 5.16247e-10 4.55818e-09 -2.82662e-10 8.82956e-10 7.89202e-09 -4.98846e-10 5.16253e-10 4.55818e-09 -2.82668e-10 7.73091 5.47488 0.417314 5.16248e-10 4.55818e-09 -2.82659e-10 2.90554 0.965183 0.102902 5.16256e-10 4.55818e-09 -2.82659e-10 10.2786 0.731801 0.0259123 5.16243e-10 4.55818e-09 -2.82646e-10 2.22167 -0.733487 -0.20892 -3.68367e-14 6.48757e-12 -6.30951e-13 -66.5736 26.7013 -6.32082 12.1069 -5.52546 -21.8141 0.106743 -9.27381 1.31498 3.03329e-09 -3.93146e-09 -2.41106e-09 5.25636e-09 -6.78789e-09 -4.14775e-09 3.03328e-09 -3.93145e-09 -2.41105e-09 -7.73091 5.47488 -0.417314 3.03329e-09 -3.93146e-09 -2.41105e-09 -2.90554 0.965183 -0.102902 3.03328e-09 -3.93146e-09 -2.41106e-09 -10.2786 0.731801 -0.0259123 3.03329e-09 -3.93146e-09 -2.41106e-09 -2.22167 -0.733487 0.20892 -2.03217e-16 0.0 -3.88251e-19 6.99289 -3.21904 16.169 -0.351432 39.051 0.51428 1.04088 -7.5016 6.45852 2.03217e-16 0.0 3.88251e-19 6.38237 -21.1871 -1.04513 0.0730447 10.2669 0.376684 -2.51891 11.3167 18.4269
